<svg width="1792" height="1792" xmlns="http://www.w3.org/2000/svg">
 <metadata id="metadata3023">image/svg+xml</metadata>

 <g>
  <title>Layer 1</title>
  <g opacity="0.75" id="svg_2" transform="matrix(0.412162, 0, 0, -0.412162, 700.863, 1198.59)">
   <path fill="#ffffff" id="svg_1" d="m1808.27001,99.28119q0,-13 -9.5,-22.5q-9.5,-9.5 -22.5,-9.5q-13,0 -22.5,9.5q-9.5,9.5 -9.5,22.5q0,46 -54,71q-54,25 -106,25q-13,0 -22.5,9.5q-9.5,9.5 -9.5,22.5q0,13 9.5,22.5q9.5,9.5 22.5,9.5q50,0 99.5,-16q49.5,-16 87,-54q37.5,-38 37.5,-90zm160,0q0,72 -34.5,134q-34.5,62 -90,101.5q-55.5,39.5 -123,62q-67.5,22.5 -136.5,22.5q-69,0 -136.5,-22.5q-67.5,-22.5 -123,-62q-55.5,-39.5 -90,-101.5q-34.5,-62 -34.5,-134q0,-101 68,-180q10,-11 30.5,-33q20.5,-22 30.5,-33q128,-153 141,-298l228,0q13,145 141,298q10,11 30.5,33q20.5,22 30.5,33q68,79 68,180zm128,0q0,-155 -103,-268q-45,-49 -74.5,-87q-29.5,-38 -59.5,-95.5q-30,-57.5 -34,-107.5q47,-28 47,-82q0,-37 -25,-64q25,-27 25,-64q0,-52 -45,-81q13,-23 13,-47q0,-46 -31.5,-71q-31.5,-25 -77.5,-25q-20,-44 -60,-70q-40,-26 -87,-26q-47,0 -87,26q-40,26 -60,70q-46,0 -77.5,25q-31.5,25 -31.5,71q0,24 13,47q-45,29 -45,81q0,37 25,64q-25,27 -25,64q0,54 47,82q-4,50 -34,107.5q-30,57.5 -59.5,95.5q-29.5,38 -74.5,87q-103,113 -103,268q0,99 44.5,184.5q44.5,85.5 117,142q72.5,56.5 164,89q91.5,32.5 186.5,32.5q95,0 186.5,-32.5q91.5,-32.5 164,-89q72.5,-56.5 117,-142q44.5,-85.5 44.5,-184.5z"/>
  </g>
  <g id="g3015" transform="matrix(0.736565, 0, 0, -0.736565, 524.69, 1108.54)">
   <path fill="#ffffff" id="path3017" d="m439.82986,557.99862q0,-13 -9.5,-22.5q-9.5,-9.5 -22.5,-9.5q-13,0 -22.5,9.5q-9.5,9.5 -9.5,22.5q0,46 -54,71q-54,25 -106,25q-13,0 -22.5,9.5q-9.5,9.5 -9.5,22.5q0,13 9.5,22.5q9.5,9.5 22.5,9.5q50,0 99.5,-16q49.5,-16 87,-54q37.5,-38 37.5,-90zm160,0q0,72 -34.5,134q-34.5,62 -90,101.5q-55.5,39.5 -123,62q-67.5,22.5 -136.5,22.5q-69,0 -136.5,-22.5q-67.5,-22.5 -123,-62q-55.5,-39.5 -90,-101.5q-34.5,-62 -34.5,-134q0,-101 68,-180q10,-11 30.5,-33q20.5,-22 30.5,-33q128,-153 141,-298l228,0q13,145 141,298q10,11 30.5,33q20.5,22 30.5,33q68,79 68,180zm128,0q0,-155 -103,-268q-45,-49 -74.5,-87q-29.5,-38 -59.5,-95.5q-30,-57.5 -34,-107.5q47,-28 47,-82q0,-37 -25,-64q25,-27 25,-64q0,-52 -45,-81q13,-23 13,-47q0,-46 -31.5,-71q-31.5,-25 -77.5,-25q-20,-44 -60,-70q-40,-26 -87,-26q-47,0 -87,26q-40,26 -60,70q-46,0 -77.5,25q-31.5,25 -31.5,71q0,24 13,47q-45,29 -45,81q0,37 25,64q-25,27 -25,64q0,54 47,82q-4,50 -34,107.5q-30,57.5 -59.5,95.5q-29.5,38 -74.5,87q-103,113 -103,268q0,99 44.5,184.5q44.5,85.5 117,142q72.5,56.5 164,89q91.5,32.5 186.5,32.5q95,0 186.5,-32.5q91.5,-32.5 164,-89q72.5,-56.5 117,-142q44.5,-85.5 44.5,-184.5z"/>
  </g>
  <g opacity="0.65" id="svg_4" transform="matrix(0.304114, 0, 0, -0.304114, 816.058, 616.93)">
   <path fill="#ffffff" id="svg_3" d="m1941.97328,549.1978q0,-13 -9.5,-22.5q-9.5,-9.5 -22.5,-9.5q-13,0 -22.5,9.5q-9.5,9.5 -9.5,22.5q0,46 -54,71q-54,25 -106,25q-13,0 -22.5,9.5q-9.5,9.5 -9.5,22.5q0,13 9.5,22.5q9.5,9.5 22.5,9.5q50,0 99.5,-16q49.5,-16 87,-54q37.5,-38 37.5,-90zm160,0q0,72 -34.5,134q-34.5,62 -90,101.5q-55.5,39.5 -123,62q-67.5,22.5 -136.5,22.5q-69,0 -136.5,-22.5q-67.5,-22.5 -123,-62q-55.5,-39.5 -90,-101.5q-34.5,-62 -34.5,-134q0,-101 68,-180q10,-11 30.5,-33q20.5,-22 30.5,-33q128,-153 141,-298l228,0q13,145 141,298q10,11 30.5,33q20.5,22 30.5,33q68,79 68,180zm128,0q0,-155 -103,-268q-45,-49 -74.5,-87q-29.5,-38 -59.5,-95.5q-30,-57.5 -34,-107.5q47,-28 47,-82q0,-37 -25,-64q25,-27 25,-64q0,-52 -45,-81q13,-23 13,-47q0,-46 -31.5,-71q-31.5,-25 -77.5,-25q-20,-44 -60,-70q-40,-26 -87,-26q-47,0 -87,26q-40,26 -60,70q-46,0 -77.5,25q-31.5,25 -31.5,71q0,24 13,47q-45,29 -45,81q0,37 25,64q-25,27 -25,64q0,54 47,82q-4,50 -34,107.5q-30,57.5 -59.5,95.5q-29.5,38 -74.5,87q-103,113 -103,268q0,99 44.5,184.5q44.5,85.5 117,142q72.5,56.5 164,89q91.5,32.5 186.5,32.5q95,0 186.5,-32.5q91.5,-32.5 164,-89q72.5,-56.5 117,-142q44.5,-85.5 44.5,-184.5z"/>
  </g>
 </g>
</svg>