<svg width="448" height="512" xmlns="http://www.w3.org/2000/svg">
 <!-- Font Awesome Free 5.15.3 by @fontawesome - https://fontawesome.com License - https://fontawesome.com/license/free (Icons: CC BY 4.0, Fonts: SIL OFL 1.1, Code: MIT License) -->

 <g>
  <title>Layer 1</title>
  <path fill="#ffffff" stroke-width="0" stroke="#ffffff" id="svg_1" d="m259.46428,313.85714l-221.92857,0a8.53571,8.53571 0 0 0 -8.53571,8.53571l0,17.07143a8.53571,8.53571 0 0 0 8.53571,8.53571l221.92857,0a8.53571,8.53571 0 0 0 8.53571,-8.53571l0,-17.07143a8.53571,8.53571 0 0 0 -8.53571,-8.53571zm0,-68.28571l-221.92857,0a8.53571,8.53571 0 0 0 -8.53571,8.53571l0,17.07143a8.53571,8.53571 0 0 0 8.53571,8.53571l221.92857,0a8.53571,8.53571 0 0 0 8.53571,-8.53571l0,-17.07143a8.53571,8.53571 0 0 0 -8.53571,-8.53571zm0,-68.28571l-221.92857,0a8.53571,8.53571 0 0 0 -8.53571,8.53571l0,17.07143a8.53571,8.53571 0 0 0 8.53571,8.53571l221.92857,0a8.53571,8.53571 0 0 0 8.53571,-8.53571l0,-17.07143a8.53571,8.53571 0 0 0 -8.53571,-8.53571zm0,-68.28571l-221.92857,0a8.53571,8.53571 0 0 0 -8.53571,8.53571l0,17.07143a8.53571,8.53571 0 0 0 8.53571,8.53571l221.92857,0a8.53571,8.53571 0 0 0 8.53571,-8.53571l0,-17.07143a8.53571,8.53571 0 0 0 -8.53571,-8.53571z"/>
  <path opacity="0.75" fill="#ffffff" stroke-width="0" stroke="#ffffff" id="svg_2" d="m425.07141,378.2857l-128.14285,0a4.92857,4.92857 0 0 0 -4.92857,4.92857l0,9.85714a4.92857,4.92857 0 0 0 4.92857,4.92857l128.14285,0a4.92857,4.92857 0 0 0 4.92857,-4.92857l0,-9.85714a4.92857,4.92857 0 0 0 -4.92857,-4.92857zm0,-39.42857l-128.14285,0a4.92857,4.92857 0 0 0 -4.92857,4.92857l0,9.85714a4.92857,4.92857 0 0 0 4.92857,4.92857l128.14285,0a4.92857,4.92857 0 0 0 4.92857,-4.92857l0,-9.85714a4.92857,4.92857 0 0 0 -4.92857,-4.92857zm0,-39.42857l-128.14285,0a4.92857,4.92857 0 0 0 -4.92857,4.92857l0,9.85714a4.92857,4.92857 0 0 0 4.92857,4.92857l128.14285,0a4.92857,4.92857 0 0 0 4.92857,-4.92857l0,-9.85714a4.92857,4.92857 0 0 0 -4.92857,-4.92857zm0,-39.42857l-128.14285,0a4.92857,4.92857 0 0 0 -4.92857,4.92857l0,9.85714a4.92857,4.92857 0 0 0 4.92857,4.92857l128.14285,0a4.92857,4.92857 0 0 0 4.92857,-4.92857l0,-9.85714a4.92857,4.92857 0 0 0 -4.92857,-4.92857z"/>
  <path opacity="0.65" fill="#ffffff" stroke-width="0" stroke="#ffffff" id="svg_3" d="m411.21428,165.85714l-98.42857,0a3.78571,3.78571 0 0 0 -3.78571,3.78571l0,7.57143a3.78571,3.78571 0 0 0 3.78571,3.78571l98.42857,0a3.78571,3.78571 0 0 0 3.78571,-3.78571l0,-7.57143a3.78571,3.78571 0 0 0 -3.78571,-3.78571zm0,-30.28571l-98.42857,0a3.78571,3.78571 0 0 0 -3.78571,3.78571l0,7.57143a3.78571,3.78571 0 0 0 3.78571,3.78571l98.42857,0a3.78571,3.78571 0 0 0 3.78571,-3.78571l0,-7.57143a3.78571,3.78571 0 0 0 -3.78571,-3.78571zm0,-30.28571l-98.42857,0a3.78571,3.78571 0 0 0 -3.78571,3.78571l0,7.57143a3.78571,3.78571 0 0 0 3.78571,3.78571l98.42857,0a3.78571,3.78571 0 0 0 3.78571,-3.78571l0,-7.57143a3.78571,3.78571 0 0 0 -3.78571,-3.78571zm0,-30.28571l-98.42857,0a3.78571,3.78571 0 0 0 -3.78571,3.78571l0,7.57143a3.78571,3.78571 0 0 0 3.78571,3.78571l98.42857,0a3.78571,3.78571 0 0 0 3.78571,-3.78571l0,-7.57143a3.78571,3.78571 0 0 0 -3.78571,-3.78571z"/>
 </g>
</svg>