<?xml version="1.0" encoding="UTF-8"?>
<svg version="1.1" viewBox="0 0 448 672" xmlns="http://www.w3.org/2000/svg" xmlns:xlink="http://www.w3.org/1999/xlink">
 <use transform="matrix(.44115 0 0 .44115 294.41 82.698)" width="100%" height="100%" opacity=".65" xlink:href="#svg_1"/>
 <use transform="matrix(.57709 0 0 .57709 273.81 239.36)" width="100%" height="100%" opacity=".75" xlink:href="#svg_1"/>
 <path id="svg_1" d="m255.85 413.73h-221.93a8.5357 8.5357 0 0 0-8.5357 8.5357v17.071a8.5357 8.5357 0 0 0 8.5357 8.5357h221.93a8.5357 8.5357 0 0 0 8.5357-8.5357v-17.071a8.5357 8.5357 0 0 0-8.5357-8.5357zm0-68.286h-221.93a8.5357 8.5357 0 0 0-8.5357 8.5357v17.071a8.5357 8.5357 0 0 0 8.5357 8.5357h221.93a8.5357 8.5357 0 0 0 8.5357-8.5357v-17.071a8.5357 8.5357 0 0 0-8.5357-8.5357zm0-68.286h-221.93a8.5357 8.5357 0 0 0-8.5357 8.5357v17.071a8.5357 8.5357 0 0 0 8.5357 8.5357h221.93a8.5357 8.5357 0 0 0 8.5357-8.5357v-17.071a8.5357 8.5357 0 0 0-8.5357-8.5357zm0-68.286h-221.93a8.5357 8.5357 0 0 0-8.5357 8.5357v17.071a8.5357 8.5357 0 0 0 8.5357 8.5357h221.93a8.5357 8.5357 0 0 0 8.5357-8.5357v-17.071a8.5357 8.5357 0 0 0-8.5357-8.5357z" fill="#fff" stroke="#fff" stroke-width="0"/>
</svg>
