<?xml version="1.0" encoding="UTF-8"?>
<svg version="1.1" viewBox="0 0 1792 2688" xmlns="http://www.w3.org/2000/svg">
 <path d="m760.65 567.28c-27.133 0-49.573 7.9199-68.639 24.053l-640.77 534.14c-6.4532 4.8398-9.6797 11.293-9.6797 19.213-1.6133 7.9198 1.6133 14.373 6.4531 20.826l54.412 65.557c4.8398 6.4532 11.146 9.5332 19.213 9.5332 6.3065 1.6133 14.373-1.6135 20.68-6.3067l618.47-515.08 331.94 277.23c9.4241-13.753 20.166-26.742 32.203-38.779 22.889-22.889 49.128-41.218 77.602-54.553l-157.36-131.1-217.35-180.69c-19.213-15.986-41.506-24.053-67.172-24.053zm0.14648 231.87-513.03 422.24s-1.6133 1.6132-1.6133 3.2265v1.6133 428.7c0 15.839 6.4533 28.744 17.6 39.891 11.146 11.146 24.053 17.6 39.893 17.6h342.02v-342.31h228.5v342.16h98.568c10.14-58.318 34.832-112.56 72.58-159.03v-402.44c0-35.127 6.5399-69.248 19.045-100.94l-303.56-250.7zm557.87 313.7c-15.812 0-16.261 0.2568-26.971 10.967-10.709 10.709-10.971 11.162-10.971 26.975v2.664l75.885 63.379v-66.043c0-15.812-0.2599-16.266-10.969-26.975-10.709-10.709-11.162-10.967-26.975-10.967z" fill="#fff" stroke-width="0"/>
 <g transform="matrix(1.1256 0 0 1.1256 -495.63 162.99)" fill="#fff" aria-label="">
  <path d="m1715.5 1430.7q0 43.212-30.248 73.46t-73.46 30.248q-43.212 0-73.46-30.248t-30.248-73.46q0-32.409 18.905-59.416 18.905-27.007 50.234-38.35v-213.36h69.139v213.36q31.329 11.343 50.234 38.35 18.905 27.007 18.905 59.416zm69.139 0q0-41.591-18.365-77.781-18.365-36.19-50.774-60.496v-414.83q0-43.212-30.248-73.46t-73.46-30.248q-43.212 0-73.46 30.248t-30.248 73.46v414.83q-32.409 24.307-50.774 60.496-18.365 36.19-18.365 77.781 0 71.84 50.234 122.07 50.774 50.774 122.61 50.774 71.84 0 122.07-50.774 50.774-50.234 50.774-122.07zm69.139 0q0 99.927-71.299 170.69-70.759 71.299-170.69 71.299-99.927 0-171.23-71.299-70.759-70.759-70.759-170.69 0-98.307 69.139-169.07v-384.04q0-71.84 50.234-122.07 50.774-50.774 122.61-50.774 71.84 0 122.07 50.774 50.774 50.234 50.774 122.07v384.04q69.139 70.759 69.139 169.07zm69.139-311.12v69.139h-103.71v-69.139zm0-138.28v69.139h-103.71v-69.139zm0-138.28v69.139h-103.71v-69.139z" fill="#fff" stroke-width="9.0726"/>
 </g>
</svg>
