<?xml version="1.0" encoding="UTF-8"?>
<svg width="1792" height="1792" version="1.1" xmlns="http://www.w3.org/2000/svg">
 <path d="m770.39 177.51c-24.105 0-44.04 7.0366-60.979 21.369l-569.26 474.54c-5.733 4.2998-8.5996 10.032-8.5996 17.068-1.4332 7.036 1.4327 12.769 5.7324 18.502l48.34 58.244c4.2998 5.733 9.904 8.4688 17.07 8.4688 5.6027 1.4333 12.768-1.434 18.371-5.6035l549.46-457.6 294.89 246.29c8.3723-12.218 17.918-23.755 28.611-34.449 20.335-20.335 43.643-36.62 68.94-48.467l-139.8-116.47-193.1-160.52c-17.069-14.202-36.874-21.369-59.676-21.369zm0.13086 206-455.78 375.12s-1.4336 1.432-1.4336 2.8652v1.4336 380.86c0 14.072 5.7323 25.537 15.635 35.44 9.9025 9.9025 21.369 15.637 35.441 15.637h303.85v-304.11h203v303.98h87.566c9.0081-51.81 30.947-99.998 64.482-141.29v-357.53c0-31.207 5.8085-61.521 16.918-89.678l-269.69-222.73zm495.61 278.7c-14.048 0-14.446 0.22924-23.961 9.7441-9.5137 9.5138-9.7461 9.9173-9.7461 23.965v2.3672l67.416 56.305v-58.672c0-14.048-0.2304-14.451-9.7442-23.965-9.5137-9.5137-9.9172-9.7441-23.965-9.7441z" fill="#fff" stroke-width="0"/>
 <g transform="translate(-345.69 -181.67)" fill="#fff" aria-label="">
  <path d="m1715.5 1430.7q0 43.212-30.248 73.46t-73.46 30.248q-43.212 0-73.46-30.248t-30.248-73.46q0-32.409 18.905-59.416 18.905-27.007 50.234-38.35v-213.36h69.139v213.36q31.329 11.343 50.234 38.35 18.905 27.007 18.905 59.416zm69.139 0q0-41.591-18.365-77.781-18.365-36.19-50.774-60.496v-414.83q0-43.212-30.248-73.46t-73.46-30.248q-43.212 0-73.46 30.248t-30.248 73.46v414.83q-32.409 24.307-50.774 60.496-18.365 36.19-18.365 77.781 0 71.84 50.234 122.07 50.774 50.774 122.61 50.774 71.84 0 122.07-50.774 50.774-50.234 50.774-122.07zm69.139 0q0 99.927-71.299 170.69-70.759 71.299-170.69 71.299-99.927 0-171.23-71.299-70.759-70.759-70.759-170.69 0-98.307 69.139-169.07v-384.04q0-71.84 50.234-122.07 50.774-50.774 122.61-50.774 71.84 0 122.07 50.774 50.774 50.234 50.774 122.07v384.04q69.139 70.759 69.139 169.07zm69.139-311.12v69.139h-103.71v-69.139zm0-138.28v69.139h-103.71v-69.139zm0-138.28v69.139h-103.71v-69.139z" fill="#fff" stroke-width="9.0726"/>
 </g>
</svg>
